<svg xmlns="http://www.w3.org/2000/svg" xmlns:xlink="http://www.w3.org/1999/xlink" width="96" zoomAndPan="magnify" viewBox="0 0 72 71.249999" height="95" preserveAspectRatio="xMidYMid meet" version="1.0"><defs><clipPath id="a85c17b038"><path d="M 1 5 L 70.882812 5 L 70.882812 70 L 1 70 Z M 1 5 " clip-rule="nonzero"/></clipPath><clipPath id="a05ec22ef6"><path d="M 0.375 49 L 16 49 L 16 60 L 0.375 60 Z M 0.375 49 " clip-rule="nonzero"/></clipPath><clipPath id="d05d48a4f6"><path d="M 26 62 L 35 62 L 35 70.507812 L 26 70.507812 Z M 26 62 " clip-rule="nonzero"/></clipPath></defs><g clip-path="url(#a85c17b038)"><path fill="#ffffff" d="M 7.476562 51.308594 C 7.992188 52 8.96875 52.144531 9.660156 51.632812 C 10.429688 51.0625 11.335938 50.761719 12.289062 50.761719 C 13.703125 50.761719 15 51.410156 15.839844 52.546875 C 17.292969 54.5 16.882812 57.273438 14.925781 58.726562 C 14.234375 59.242188 14.089844 60.21875 14.605469 60.910156 L 20.667969 69.078125 C 20.972656 69.492188 21.445312 69.710938 21.921875 69.710938 C 22.246094 69.710938 22.570312 69.609375 22.851562 69.402344 L 70.042969 34.371094 C 70.734375 33.859375 70.878906 32.878906 70.363281 32.1875 L 64.300781 24.019531 C 64.054688 23.6875 63.683594 23.464844 63.277344 23.40625 C 62.867188 23.347656 62.449219 23.449219 62.117188 23.695312 C 61.347656 24.265625 60.441406 24.566406 59.488281 24.566406 C 58.074219 24.566406 56.777344 23.914062 55.9375 22.78125 C 55.234375 21.835938 54.941406 20.667969 55.113281 19.503906 C 55.285156 18.335938 55.902344 17.304688 56.851562 16.601562 C 57.183594 16.355469 57.402344 15.984375 57.464844 15.578125 C 57.523438 15.167969 57.421875 14.75 57.171875 14.417969 L 51.109375 6.25 C 50.59375 5.558594 49.617188 5.410156 48.925781 5.925781 L 1.734375 40.957031 C 1.402344 41.203125 1.179688 41.570312 1.121094 41.980469 C 1.0625 42.390625 1.164062 42.808594 1.414062 43.140625 Z M 37.90625 17.992188 L 38.371094 18.621094 C 38.601562 18.929688 38.953125 19.09375 39.3125 19.09375 C 39.554688 19.09375 39.796875 19.019531 40.007812 18.863281 C 40.527344 18.476562 40.636719 17.746094 40.25 17.226562 L 39.785156 16.597656 L 49.53125 9.363281 L 53.832031 15.152344 C 52.871094 16.238281 52.242188 17.578125 52.023438 19.046875 C 51.730469 21.035156 52.230469 23.023438 53.429688 24.640625 C 54.84375 26.550781 57.109375 27.6875 59.488281 27.6875 C 60.585938 27.6875 61.648438 27.453125 62.628906 27.003906 L 66.925781 32.792969 L 57.179688 40.03125 L 56.714844 39.402344 C 56.328125 38.882812 55.59375 38.777344 55.074219 39.160156 C 54.554688 39.546875 54.449219 40.28125 54.832031 40.800781 L 55.296875 41.425781 L 22.242188 65.964844 L 17.945312 60.171875 C 20.253906 57.558594 20.507812 53.59375 18.347656 50.683594 C 16.929688 48.777344 14.667969 47.636719 12.289062 47.636719 C 11.191406 47.636719 10.125 47.871094 9.148438 48.324219 L 4.847656 42.53125 Z M 37.90625 17.992188 " fill-opacity="1" fill-rule="nonzero"/></g><path fill="#ffffff" d="M 51.539062 36.363281 C 51.769531 36.671875 52.125 36.835938 52.480469 36.835938 C 52.722656 36.835938 52.96875 36.761719 53.179688 36.605469 C 53.699219 36.21875 53.804688 35.488281 53.421875 34.96875 L 50.128906 30.53125 C 49.742188 30.011719 49.011719 29.90625 48.488281 30.289062 C 47.96875 30.675781 47.863281 31.410156 48.246094 31.929688 Z M 51.539062 36.363281 " fill-opacity="1" fill-rule="nonzero"/><path fill="#ffffff" d="M 44.957031 27.492188 C 45.183594 27.800781 45.539062 27.964844 45.894531 27.964844 C 46.136719 27.964844 46.382812 27.890625 46.59375 27.734375 C 47.113281 27.347656 47.222656 26.617188 46.835938 26.097656 L 43.542969 21.660156 C 43.15625 21.140625 42.425781 21.035156 41.90625 21.417969 C 41.386719 21.804688 41.277344 22.539062 41.664062 23.058594 Z M 44.957031 27.492188 " fill-opacity="1" fill-rule="nonzero"/><path fill="#ffffff" d="M 14.65625 29.421875 C 14.886719 29.542969 15.132812 29.601562 15.378906 29.601562 C 15.941406 29.601562 16.484375 29.296875 16.761719 28.761719 L 23.125 16.5625 L 23.648438 16.835938 C 23.820312 16.925781 24.003906 16.96875 24.1875 16.96875 C 24.609375 16.96875 25.019531 16.738281 25.226562 16.335938 C 25.527344 15.765625 25.304688 15.058594 24.730469 14.757812 L 24.207031 14.484375 L 29.820312 3.722656 L 36.214844 7.054688 C 35.820312 8.464844 35.84375 9.957031 36.300781 11.382812 C 36.5625 12.203125 37.441406 12.65625 38.261719 12.394531 C 39.085938 12.128906 39.535156 11.253906 39.273438 10.429688 C 38.910156 9.300781 39.015625 8.09375 39.5625 7.042969 C 39.960938 6.277344 39.667969 5.332031 38.902344 4.933594 L 29.882812 0.230469 C 29.511719 0.0390625 29.082031 0 28.691406 0.125 C 28.296875 0.25 27.964844 0.527344 27.773438 0.894531 L 13.996094 27.316406 C 13.597656 28.082031 13.894531 29.023438 14.65625 29.421875 Z M 14.65625 29.421875 " fill-opacity="1" fill-rule="nonzero"/><g clip-path="url(#a05ec22ef6)"><path fill="#ffffff" d="M 1.261719 55.109375 L 10.28125 59.8125 C 10.507812 59.933594 10.753906 59.992188 11.003906 59.992188 C 11.160156 59.992188 11.320312 59.96875 11.472656 59.917969 C 11.867188 59.792969 12.195312 59.519531 12.386719 59.152344 C 12.882812 58.199219 13.707031 57.464844 14.703125 57.078125 C 15.507812 56.765625 15.90625 55.859375 15.59375 55.058594 C 15.285156 54.253906 14.378906 53.855469 13.574219 54.167969 C 12.363281 54.636719 11.300781 55.410156 10.488281 56.398438 L 4.089844 53.0625 L 4.988281 51.339844 C 5.386719 50.574219 5.089844 49.632812 4.324219 49.234375 C 3.558594 48.835938 2.617188 49.132812 2.21875 49.898438 L 0.597656 53.003906 C 0.40625 53.371094 0.371094 53.800781 0.492188 54.195312 C 0.617188 54.589844 0.894531 54.917969 1.261719 55.109375 Z M 1.261719 55.109375 " fill-opacity="1" fill-rule="nonzero"/></g><g clip-path="url(#d05d48a4f6)"><path fill="#ffffff" d="M 31.394531 63.820312 L 29.964844 66.558594 L 29.21875 66.167969 C 28.453125 65.773438 27.511719 66.066406 27.113281 66.832031 C 26.714844 67.597656 27.007812 68.539062 27.773438 68.9375 L 29.90625 70.046875 C 30.128906 70.164062 30.378906 70.226562 30.625 70.226562 C 30.785156 70.226562 30.941406 70.199219 31.09375 70.152344 C 31.488281 70.027344 31.820312 69.753906 32.011719 69.386719 L 34.160156 65.261719 C 34.558594 64.5 34.261719 63.554688 33.5 63.15625 C 32.734375 62.757812 31.792969 63.054688 31.394531 63.820312 Z M 31.394531 63.820312 " fill-opacity="1" fill-rule="nonzero"/></g><path fill="#ffffff" d="M 28.277344 16.609375 C 27.703125 16.308594 26.996094 16.53125 26.695312 17.105469 C 26.398438 17.679688 26.621094 18.386719 27.195312 18.683594 L 28.066406 19.140625 C 28.242188 19.230469 28.425781 19.273438 28.609375 19.273438 C 29.03125 19.273438 29.4375 19.042969 29.648438 18.644531 C 29.945312 18.070312 29.726562 17.363281 29.152344 17.0625 Z M 28.277344 16.609375 " fill-opacity="1" fill-rule="nonzero"/></svg>