<svg xmlns="http://www.w3.org/2000/svg" xmlns:xlink="http://www.w3.org/1999/xlink" width="450" zoomAndPan="magnify" viewBox="0 0 337.5 120.749998" height="161" preserveAspectRatio="xMidYMid meet" version="1.0"><defs><g/><clipPath id="80535bfdbc"><path d="M 0.0976562 34 L 71 34 L 71 99 L 0.0976562 99 Z M 0.0976562 34 " clip-rule="nonzero"/></clipPath><clipPath id="6d82049aed"><path d="M 13 28.617188 L 40 28.617188 L 40 59 L 13 59 Z M 13 28.617188 " clip-rule="nonzero"/></clipPath><clipPath id="786af7c32a"><path d="M 0.0976562 78 L 16 78 L 16 90 L 0.0976562 90 Z M 0.0976562 78 " clip-rule="nonzero"/></clipPath><clipPath id="08ced0876c"><path d="M 26 92 L 35 92 L 35 99.722656 L 26 99.722656 Z M 26 92 " clip-rule="nonzero"/></clipPath></defs><g clip-path="url(#80535bfdbc)"><path fill="#ffffff" d="M 7.261719 80.359375 C 7.777344 81.058594 8.765625 81.203125 9.464844 80.6875 C 10.238281 80.113281 11.152344 79.808594 12.113281 79.808594 C 13.542969 79.808594 14.847656 80.464844 15.695312 81.605469 C 17.160156 83.578125 16.746094 86.375 14.773438 87.839844 C 14.074219 88.359375 13.929688 89.34375 14.449219 90.042969 L 20.5625 98.28125 C 20.871094 98.695312 21.347656 98.917969 21.828125 98.917969 C 22.152344 98.917969 22.484375 98.816406 22.765625 98.605469 L 70.351562 63.28125 C 71.050781 62.761719 71.199219 61.777344 70.679688 61.078125 L 64.5625 52.839844 C 64.316406 52.503906 63.945312 52.28125 63.53125 52.21875 C 63.117188 52.160156 62.695312 52.265625 62.363281 52.515625 C 61.585938 53.089844 60.671875 53.390625 59.710938 53.390625 C 58.285156 53.390625 56.976562 52.734375 56.128906 51.59375 C 55.421875 50.636719 55.125 49.460938 55.300781 48.285156 C 55.472656 47.109375 56.09375 46.070312 57.050781 45.359375 C 57.386719 45.113281 57.609375 44.738281 57.671875 44.328125 C 57.730469 43.914062 57.625 43.492188 57.375 43.15625 L 51.261719 34.917969 C 50.742188 34.222656 49.757812 34.074219 49.058594 34.59375 L 1.46875 69.921875 C 1.136719 70.167969 0.914062 70.539062 0.851562 70.953125 C 0.789062 71.367188 0.894531 71.789062 1.144531 72.121094 Z M 37.945312 46.765625 L 38.414062 47.398438 C 38.648438 47.710938 39.003906 47.875 39.363281 47.875 C 39.609375 47.875 39.855469 47.796875 40.066406 47.640625 C 40.589844 47.253906 40.699219 46.511719 40.3125 45.988281 L 39.839844 45.355469 L 49.671875 38.058594 L 54.007812 43.898438 C 53.035156 44.992188 52.402344 46.34375 52.183594 47.824219 C 51.886719 49.832031 52.390625 51.835938 53.601562 53.46875 C 55.027344 55.390625 57.3125 56.539062 59.710938 56.539062 C 60.820312 56.539062 61.890625 56.304688 62.878906 55.851562 L 67.210938 61.691406 L 57.382812 68.988281 L 56.914062 68.355469 C 56.523438 67.832031 55.785156 67.722656 55.261719 68.109375 C 54.738281 68.5 54.628906 69.238281 55.015625 69.761719 L 55.488281 70.394531 L 22.152344 95.140625 L 17.816406 89.296875 C 20.144531 86.664062 20.402344 82.664062 18.222656 79.730469 C 16.796875 77.808594 14.511719 76.660156 12.113281 76.660156 C 11.003906 76.660156 9.933594 76.894531 8.945312 77.351562 L 4.609375 71.507812 Z M 37.945312 46.765625 " fill-opacity="1" fill-rule="nonzero"/></g><path fill="#ffffff" d="M 51.695312 65.289062 C 51.929688 65.601562 52.285156 65.765625 52.644531 65.765625 C 52.890625 65.765625 53.136719 65.691406 53.347656 65.535156 C 53.871094 65.144531 53.980469 64.40625 53.59375 63.882812 L 50.273438 59.410156 C 49.882812 58.886719 49.144531 58.777344 48.621094 59.164062 C 48.097656 59.554688 47.988281 60.292969 48.375 60.816406 Z M 51.695312 65.289062 " fill-opacity="1" fill-rule="nonzero"/><path fill="#ffffff" d="M 45.054688 56.34375 C 45.289062 56.65625 45.644531 56.820312 46.003906 56.820312 C 46.25 56.820312 46.496094 56.746094 46.707031 56.585938 C 47.230469 56.199219 47.339844 55.457031 46.953125 54.933594 L 43.632812 50.460938 C 43.242188 49.9375 42.503906 49.832031 41.980469 50.21875 C 41.457031 50.605469 41.347656 51.347656 41.734375 51.871094 Z M 45.054688 56.34375 " fill-opacity="1" fill-rule="nonzero"/><g clip-path="url(#6d82049aed)"><path fill="#ffffff" d="M 14.5 58.289062 C 14.734375 58.410156 14.984375 58.46875 15.226562 58.46875 C 15.796875 58.46875 16.34375 58.160156 16.625 57.621094 L 23.042969 45.320312 L 23.570312 45.59375 C 23.742188 45.6875 23.929688 45.730469 24.113281 45.730469 C 24.539062 45.730469 24.949219 45.496094 25.160156 45.09375 C 25.460938 44.515625 25.238281 43.800781 24.660156 43.5 L 24.132812 43.226562 L 29.792969 32.371094 L 36.242188 35.734375 C 35.84375 37.152344 35.867188 38.660156 36.328125 40.097656 C 36.59375 40.925781 37.476562 41.382812 38.308594 41.117188 C 39.136719 40.851562 39.589844 39.964844 39.328125 39.136719 C 38.960938 37.996094 39.066406 36.78125 39.617188 35.71875 C 40.019531 34.949219 39.722656 33.996094 38.949219 33.59375 L 29.855469 28.851562 C 29.484375 28.65625 29.050781 28.621094 28.65625 28.746094 C 28.253906 28.871094 27.921875 29.148438 27.730469 29.519531 L 13.835938 56.167969 C 13.433594 56.9375 13.730469 57.886719 14.5 58.289062 Z M 14.5 58.289062 " fill-opacity="1" fill-rule="nonzero"/></g><g clip-path="url(#786af7c32a)"><path fill="#ffffff" d="M 0.992188 84.195312 L 10.089844 88.9375 C 10.316406 89.054688 10.566406 89.117188 10.816406 89.117188 C 10.976562 89.117188 11.136719 89.089844 11.289062 89.042969 C 11.6875 88.917969 12.019531 88.640625 12.214844 88.269531 C 12.714844 87.3125 13.542969 86.566406 14.550781 86.175781 C 15.359375 85.863281 15.761719 84.949219 15.449219 84.140625 C 15.132812 83.328125 14.21875 82.925781 13.410156 83.242188 C 12.1875 83.714844 11.117188 84.496094 10.296875 85.492188 L 3.84375 82.128906 L 4.75 80.390625 C 5.152344 79.621094 4.855469 78.667969 4.082031 78.269531 C 3.3125 77.867188 2.359375 78.167969 1.960938 78.9375 L 0.324219 82.070312 C 0.132812 82.441406 0.09375 82.871094 0.21875 83.269531 C 0.34375 83.667969 0.621094 84 0.992188 84.195312 Z M 0.992188 84.195312 " fill-opacity="1" fill-rule="nonzero"/></g><g clip-path="url(#08ced0876c)"><path fill="#ffffff" d="M 31.378906 92.976562 L 29.9375 95.738281 L 29.183594 95.34375 C 28.414062 94.945312 27.464844 95.242188 27.0625 96.011719 C 26.660156 96.785156 26.957031 97.734375 27.730469 98.136719 L 29.878906 99.257812 C 30.105469 99.375 30.355469 99.4375 30.605469 99.4375 C 30.765625 99.4375 30.925781 99.410156 31.078125 99.363281 C 31.476562 99.238281 31.808594 98.960938 32 98.589844 L 34.171875 94.433594 C 34.574219 93.660156 34.273438 92.710938 33.503906 92.308594 C 32.734375 91.90625 31.78125 92.207031 31.378906 92.976562 Z M 31.378906 92.976562 " fill-opacity="1" fill-rule="nonzero"/></g><path fill="#ffffff" d="M 28.234375 45.367188 C 27.65625 45.066406 26.945312 45.289062 26.644531 45.867188 C 26.34375 46.445312 26.566406 47.160156 27.144531 47.460938 L 28.027344 47.917969 C 28.199219 48.011719 28.386719 48.054688 28.570312 48.054688 C 28.996094 48.054688 29.410156 47.824219 29.617188 47.417969 C 29.921875 46.839844 29.695312 46.128906 29.117188 45.828125 Z M 28.234375 45.367188 " fill-opacity="1" fill-rule="nonzero"/><path stroke-linecap="butt" transform="matrix(0.74845, 0, 0, 0.74845, 81.113375, 17.231625)" fill="none" stroke-linejoin="miter" d="M 5.432976 28.453081 L 5.432976 35.050045 L 21.977576 35.050045 L 21.977576 82.998072 L 29.566173 82.998072 L 29.566173 35.050045 L 46.115992 35.050045 L 46.115992 28.453081 Z M 63.907962 82.554447 C 66.480987 83.566956 69.471541 84.067991 72.890062 84.067991 C 75.421334 84.067991 77.696869 83.765282 79.732324 83.159865 C 81.778218 82.554447 83.557937 81.688074 85.0767 80.560745 C 86.600682 79.428196 87.848051 78.055568 88.834464 76.442861 C 89.826097 74.814497 90.57243 72.977368 91.073466 70.931474 L 84.372119 69.517093 C 84.100725 70.675737 83.677977 71.766533 83.098655 72.789479 C 82.524552 73.812426 81.778218 74.699676 80.859654 75.451229 C 79.946308 76.192344 78.845075 76.782104 77.550734 77.225729 C 76.261612 77.658916 74.73241 77.872899 72.968349 77.872899 C 68.558195 77.872899 65.207522 76.542025 62.921549 73.880275 C 60.719081 71.302031 59.576095 67.617335 59.492589 62.820966 L 90.405419 62.575668 C 90.567211 58.609139 90.238407 55.164522 89.419006 52.247035 C 88.594385 49.32433 87.373112 46.902659 85.744747 44.982024 C 84.116383 43.040513 82.159214 41.594818 79.873241 40.639719 C 77.587267 39.674183 75.009024 39.188805 72.143728 39.188805 C 68.939191 39.188805 66.099991 39.768127 63.62613 40.921551 C 61.152268 42.080195 59.059402 43.692903 57.352751 45.764892 C 55.640881 47.826443 54.341321 50.258552 53.454071 53.071656 C 52.582478 55.88476 52.144072 58.969258 52.144072 62.335588 C 52.144072 65.592317 52.592916 68.556776 53.495824 71.234183 C 54.409169 73.895932 55.734825 76.197563 57.472791 78.133855 C 59.205538 80.059709 61.350595 81.5315 63.907962 82.554447 Z M 59.826612 57.685355 C 60.087568 56.056991 60.499879 54.57998 61.063543 53.254325 C 62.112586 50.764806 63.584377 48.859828 65.484135 47.544611 C 67.394332 46.224174 69.612457 45.566566 72.143728 45.566566 C 74.513208 45.566566 76.564321 46.145888 78.297067 47.299312 C 80.035033 48.457956 81.350251 50.164608 82.253158 52.424485 C 82.837699 53.870181 83.182161 55.550736 83.281324 57.471371 Z M 100.734051 60.096587 L 100.734051 82.998072 L 108.260018 82.998072 L 108.260018 62.998416 C 108.922846 59.908699 109.763123 57.163443 110.78607 54.767869 C 111.803798 52.372294 113.098139 50.462097 114.658655 49.037278 C 116.234828 47.596802 118.098053 46.876564 120.248329 46.876564 C 121.015539 46.876564 121.808845 46.965289 122.628247 47.13752 C 123.463305 47.299312 124.298364 47.544611 125.133423 47.862977 L 125.535295 39.935138 C 124.595854 39.663744 123.766014 39.475856 123.050995 39.371474 C 122.341195 39.246215 121.683586 39.188805 121.078169 39.188805 C 118.599088 39.188805 116.474908 39.86729 114.700408 41.22426 C 112.936346 42.570792 111.532404 44.454894 110.483361 46.876564 C 109.444757 49.298234 108.677547 52.189625 108.181731 55.555955 L 106.850856 55.555955 L 107.59719 40.258724 L 100.734051 40.258724 Z M 136.933846 82.757993 C 138.817947 83.634804 140.942128 84.067991 143.311607 84.067991 C 146.119492 84.067991 148.572477 83.504327 150.654905 82.376997 C 152.75299 81.244449 154.490955 79.772658 155.863583 77.956405 C 157.246649 76.140153 158.321787 74.151669 159.088998 72.001393 L 160.158916 72.001393 C 160.226765 73.869837 160.31549 75.722623 160.425091 77.549314 L 160.743458 82.998072 L 167.690102 82.998072 C 167.52831 81.23923 167.371736 79.339471 167.225601 77.309235 C 167.089904 75.263341 166.980302 73.238324 166.902016 71.234183 C 166.81851 69.214384 166.781976 67.325064 166.781976 65.566222 L 166.781976 56.380576 C 166.781976 54.282491 166.557554 52.215721 166.113929 50.185484 C 165.685961 48.13959 164.887436 46.276365 163.734012 44.59581 C 162.575368 42.915254 160.920908 41.594818 158.770631 40.639719 C 156.615136 39.674183 153.828128 39.188805 150.414825 39.188805 C 147.935745 39.188805 145.649771 39.475856 143.551686 40.055178 C 141.469259 40.6345 139.637349 41.500873 138.061175 42.659517 C 136.490221 43.818161 135.190661 45.196008 134.167714 46.798277 C 133.160425 48.395327 132.434967 50.237675 131.986123 52.325322 L 138.849262 54.564323 C 139.225038 52.252254 140.018344 50.436002 141.229179 49.115565 C 142.455672 47.78469 143.890929 46.845249 145.529732 46.292023 C 147.184192 45.738796 148.838652 45.462183 150.493112 45.462183 C 152.539006 45.462183 154.193466 45.801426 155.456492 46.474692 C 156.724738 47.132301 157.685055 48.040427 158.342664 49.199071 C 159.01593 50.352496 159.355172 51.672932 159.355172 53.155162 C 159.355172 54.308586 159.078559 55.180179 158.525333 55.754282 C 157.972106 56.333604 157.048323 56.777229 155.743544 57.090376 C 154.449203 57.382646 152.674703 57.701012 150.414825 58.035036 C 148.207139 58.374279 145.957699 58.760493 143.671726 59.209337 C 141.385753 59.637305 139.282449 60.336666 137.356595 61.307422 C 135.43074 62.262521 133.859786 63.593395 132.633294 65.300047 C 131.422459 67.011917 130.817041 69.29789 130.817041 72.163185 C 130.817041 74.814497 131.370267 77.022183 132.471501 78.781026 C 133.577954 80.545087 135.060183 81.870743 136.933846 82.757993 Z M 149.2614 77.350988 C 147.998374 77.75286 146.724909 77.956405 145.451445 77.956405 C 143.311607 77.956405 141.573641 77.387522 140.242766 76.260192 C 138.92233 75.127644 138.264721 73.488841 138.264721 71.333346 C 138.264721 69.517093 138.713565 68.081836 139.616472 67.017136 C 140.529818 65.941998 141.714557 65.127816 143.170691 64.574589 C 144.637263 64.021363 146.24997 63.577738 148.014031 63.243715 C 149.772874 62.904472 151.536935 62.617421 153.300997 62.377341 C 155.075497 62.132043 156.688204 61.777143 158.144337 61.307422 C 158.60362 61.156068 159.031587 60.989056 159.433459 60.801168 L 159.433459 66.630922 C 158.598401 68.676815 157.643302 70.42 156.568164 71.860477 C 155.493026 73.285296 154.323944 74.454378 153.055698 75.372942 C 151.792672 76.27063 150.529646 76.933458 149.2614 77.350988 Z M 187.079122 83.123331 C 189.370314 83.754844 192.000749 84.067991 194.970426 84.067991 C 198.602932 84.067991 201.739621 83.593052 204.375275 82.637953 C 207.026587 81.667197 209.098576 80.237159 210.591243 78.337401 C 212.083911 76.427204 212.830245 74.094259 212.830245 71.333346 C 212.830245 69.021277 212.360524 67.137176 211.421083 65.686261 C 210.476423 64.219689 209.208177 63.050607 207.605909 62.173796 C 206.019297 61.286546 204.213483 60.566308 202.198903 60.013081 C 200.189543 59.465074 198.112335 58.969258 195.962059 58.54129 C 193.754372 58.045474 191.781546 57.560096 190.048799 57.090376 C 188.310833 56.615436 186.932986 55.94217 185.910039 55.070577 C 184.90275 54.183328 184.396496 52.993369 184.396496 51.495482 C 184.396496 49.574847 185.231554 48.061303 186.901672 46.954851 C 188.582227 45.853617 190.883858 45.300391 193.801344 45.300391 C 196.009031 45.300391 197.940104 45.618757 199.594564 46.25027 C 201.249024 46.881783 202.527708 47.852539 203.425396 49.157318 C 204.34396 50.44644 204.829338 52.027832 204.88153 53.901495 L 211.421083 52.325322 C 211.25929 49.632258 210.455546 47.31497 209.020289 45.36302 C 207.590251 43.400632 205.622644 41.87665 203.10703 40.801512 C 200.601854 39.726374 197.616519 39.188805 194.145806 39.188805 C 190.617683 39.188805 187.585376 39.710716 185.043666 40.759759 C 182.512394 41.808801 180.555225 43.270154 179.172159 45.138598 C 177.799532 47.012261 177.110608 49.246043 177.110608 51.839944 C 177.110608 54.099822 177.611644 55.963046 178.603276 57.429618 C 179.600127 58.885752 180.904906 60.070492 182.522833 60.983837 C 184.145978 61.886744 185.951792 62.612201 187.929838 63.160209 C 189.918321 63.713435 191.93812 64.209251 193.984013 64.658095 C 196.296082 65.153911 198.336757 65.649728 200.095599 66.150763 C 201.859661 66.630922 203.232289 67.304188 204.213483 68.165342 C 205.210334 69.016058 205.70615 70.211236 205.70615 71.761313 C 205.70615 73.681948 204.813681 75.195492 203.023524 76.301945 C 201.233367 77.403179 198.686438 77.956405 195.377518 77.956405 C 192.736644 77.956405 190.466329 77.596286 188.556132 76.886486 C 186.656373 76.171467 185.210678 75.143301 184.213826 73.796769 C 183.232632 72.439799 182.768131 70.795777 182.825541 68.875142 L 176.44778 70.42522 C 176.44778 72.528524 176.854872 74.417844 177.679492 76.0984 C 178.509332 77.778955 179.714948 79.214212 181.291121 80.398952 C 182.862075 81.578472 184.793148 82.486599 187.079122 83.123331 Z M 230.679625 83.081578 C 232.281893 83.739187 234.150337 84.067991 236.290175 84.067991 C 238.779694 84.067991 240.98738 83.551299 242.908016 82.517913 C 244.83387 81.468871 246.451796 79.809192 247.772232 77.549314 C 249.103107 75.289436 250.099959 72.398046 250.757567 68.875142 L 252.010155 68.875142 L 251.342108 82.998072 L 258.043455 82.998072 L 258.043455 40.258724 L 250.517488 40.258724 L 250.517488 59.611209 C 250.235656 62.246863 249.776373 64.658095 249.14486 66.834467 C 248.513347 69.016058 247.683507 70.889721 246.660561 72.465894 C 245.653271 74.02641 244.458093 75.237245 243.069808 76.0984 C 241.69718 76.943897 240.157541 77.371864 238.45089 77.371864 C 236.352805 77.371864 234.693125 76.907363 233.48229 75.97836 C 232.271455 75.0337 231.378986 73.812426 230.799664 72.304102 C 230.220342 70.785339 229.844566 69.130879 229.672335 67.340721 C 229.510542 65.550564 229.427036 63.80216 229.427036 62.09029 L 229.427036 40.258724 L 221.83844 40.258724 L 221.83844 63.828256 C 221.83844 66.197735 222.000233 68.400202 222.323818 70.446096 C 222.663061 72.481552 223.174534 74.334338 223.858239 76.014894 C 224.547162 77.700669 225.455288 79.130707 226.582618 80.315446 C 227.715166 81.500186 229.077356 82.423969 230.679625 83.081578 Z M 278.664186 83.123331 C 280.950159 83.754844 283.580594 84.067991 286.55549 84.067991 C 290.187996 84.067991 293.324685 83.593052 295.960339 82.637953 C 298.611651 81.667197 300.68364 80.237159 302.176307 78.337401 C 303.668975 76.427204 304.415309 74.094259 304.415309 71.333346 C 304.415309 69.021277 303.945588 67.137176 303.000928 65.686261 C 302.061487 64.219689 300.788022 63.050607 299.185753 62.173796 C 297.599142 61.286546 295.798547 60.566308 293.778748 60.013081 C 291.774607 59.465074 289.697399 58.969258 287.541904 58.54129 C 285.339436 58.045474 283.36661 57.560096 281.628644 57.090376 C 279.895897 56.615436 278.51805 55.94217 277.495103 55.070577 C 276.482595 54.183328 275.98156 52.993369 275.98156 51.495482 C 275.98156 49.574847 276.816618 48.061303 278.481517 46.954851 C 280.162072 45.853617 282.463703 45.300391 285.386408 45.300391 C 287.588876 45.300391 289.519949 45.618757 291.174409 46.25027 C 292.828869 46.881783 294.107553 47.852539 295.01046 49.157318 C 295.923805 50.44644 296.409183 52.027832 296.461374 53.901495 L 303.000928 52.325322 C 302.839135 49.632258 302.04061 47.31497 300.600134 45.36302 C 299.175315 43.400632 297.202489 41.87665 294.686875 40.801512 C 292.186918 39.726374 289.196364 39.188805 285.725651 39.188805 C 282.202747 39.188805 279.17044 39.710716 276.62873 40.759759 C 274.097458 41.808801 272.140289 43.270154 270.752004 45.138598 C 269.379377 47.012261 268.695672 49.246043 268.695672 51.839944 C 268.695672 54.099822 269.191488 55.963046 270.18834 57.429618 C 271.185191 58.885752 272.48997 60.070492 274.102677 60.983837 C 275.731042 61.886744 277.536856 62.612201 279.509683 63.160209 C 281.503385 63.713435 283.523183 64.209251 285.563858 64.658095 C 287.881146 65.153911 289.916602 65.649728 291.680663 66.150763 C 293.444725 66.630922 294.817353 67.304188 295.798547 68.165342 C 296.795398 69.016058 297.291214 70.211236 297.291214 71.761313 C 297.291214 73.681948 296.398745 75.195492 294.608588 76.301945 C 292.818431 77.403179 290.266283 77.956405 286.957362 77.956405 C 284.321708 77.956405 282.046173 77.596286 280.135977 76.886486 C 278.241437 76.171467 276.795742 75.143301 275.79889 73.796769 C 274.817696 72.439799 274.353195 70.795777 274.405386 68.875142 L 268.027625 70.42522 C 268.027625 72.528524 268.439936 74.417844 269.259337 76.0984 C 270.094396 77.778955 271.300012 79.214212 272.870966 80.398952 C 274.447139 81.578472 276.378212 82.486599 278.664186 83.123331 Z M 278.664186 83.123331 " stroke="#ffffff" stroke-width="3.306724" stroke-opacity="1" stroke-miterlimit="4"/><g fill="#03555d" fill-opacity="1"><g transform="translate(83.697867, 79.353005)"><g><path d="M 13.859375 0 L 13.859375 -40.828125 L 19.546875 -40.828125 L 19.546875 0 Z M 1.484375 -35.875 L 1.484375 -40.828125 L 31.921875 -40.828125 L 31.921875 -35.875 Z M 1.484375 -35.875 "/></g></g></g><g fill="#03555d" fill-opacity="1"><g transform="translate(117.104443, 79.353005)"><g><path d="M 18.5625 0.796875 C 16 0.796875 13.757812 0.414062 11.84375 -0.34375 C 9.925781 -1.101562 8.316406 -2.203125 7.015625 -3.640625 C 5.722656 -5.085938 4.734375 -6.8125 4.046875 -8.8125 C 3.367188 -10.8125 3.03125 -13.03125 3.03125 -15.46875 C 3.03125 -17.976562 3.359375 -20.285156 4.015625 -22.390625 C 4.679688 -24.492188 5.648438 -26.316406 6.921875 -27.859375 C 8.203125 -29.410156 9.769531 -30.617188 11.625 -31.484375 C 13.476562 -32.347656 15.601562 -32.78125 18 -32.78125 C 20.144531 -32.78125 22.070312 -32.421875 23.78125 -31.703125 C 25.5 -30.984375 26.960938 -29.898438 28.171875 -28.453125 C 29.390625 -27.015625 30.304688 -25.203125 30.921875 -23.015625 C 31.546875 -20.828125 31.796875 -18.25 31.671875 -15.28125 L 6.625 -15.09375 L 6.625 -18.921875 L 28.140625 -19.109375 L 26.296875 -16.515625 C 26.492188 -19.078125 26.253906 -21.203125 25.578125 -22.890625 C 24.898438 -24.578125 23.910156 -25.851562 22.609375 -26.71875 C 21.304688 -27.582031 19.769531 -28.015625 18 -28.015625 C 16.101562 -28.015625 14.441406 -27.519531 13.015625 -26.53125 C 11.597656 -25.539062 10.492188 -24.117188 9.703125 -22.265625 C 8.921875 -20.410156 8.53125 -18.164062 8.53125 -15.53125 C 8.53125 -11.726562 9.382812 -8.828125 11.09375 -6.828125 C 12.8125 -4.828125 15.320312 -3.828125 18.625 -3.828125 C 19.9375 -3.828125 21.078125 -3.992188 22.046875 -4.328125 C 23.015625 -4.660156 23.835938 -5.101562 24.515625 -5.65625 C 25.203125 -6.21875 25.757812 -6.878906 26.1875 -7.640625 C 26.625 -8.398438 26.945312 -9.210938 27.15625 -10.078125 L 32.171875 -9.03125 C 31.796875 -7.507812 31.238281 -6.140625 30.5 -4.921875 C 29.757812 -3.703125 28.820312 -2.671875 27.6875 -1.828125 C 26.550781 -0.984375 25.21875 -0.335938 23.6875 0.109375 C 22.164062 0.566406 20.457031 0.796875 18.5625 0.796875 Z M 18.5625 0.796875 "/></g></g></g><g fill="#03555d" fill-opacity="1"><g transform="translate(151.810163, 79.353005)"><g><path d="M 4.703125 0 L 4.703125 -31.984375 L 9.828125 -31.984375 L 9.28125 -20.53125 L 10.265625 -20.53125 C 10.640625 -23.050781 11.21875 -25.21875 12 -27.03125 C 12.78125 -28.84375 13.832031 -30.253906 15.15625 -31.265625 C 16.476562 -32.273438 18.066406 -32.78125 19.921875 -32.78125 C 20.367188 -32.78125 20.859375 -32.738281 21.390625 -32.65625 C 21.929688 -32.570312 22.554688 -32.429688 23.265625 -32.234375 L 22.953125 -26.296875 C 22.328125 -26.535156 21.707031 -26.71875 21.09375 -26.84375 C 20.476562 -26.96875 19.878906 -27.03125 19.296875 -27.03125 C 17.691406 -27.03125 16.300781 -26.492188 15.125 -25.421875 C 13.945312 -24.347656 12.976562 -22.914062 12.21875 -21.125 C 11.457031 -19.332031 10.828125 -17.28125 10.328125 -14.96875 L 10.328125 0 Z M 4.703125 0 "/></g></g></g><g fill="#03555d" fill-opacity="1"><g transform="translate(176.184593, 79.353005)"><g><path d="M 12.1875 0.796875 C 10.414062 0.796875 8.828125 0.46875 7.421875 -0.1875 C 6.015625 -0.84375 4.898438 -1.832031 4.078125 -3.15625 C 3.253906 -4.476562 2.84375 -6.128906 2.84375 -8.109375 C 2.84375 -10.242188 3.296875 -11.953125 4.203125 -13.234375 C 5.109375 -14.515625 6.28125 -15.515625 7.71875 -16.234375 C 9.164062 -16.960938 10.742188 -17.488281 12.453125 -17.8125 C 14.171875 -18.144531 15.851562 -18.4375 17.5 -18.6875 C 19.195312 -18.925781 20.53125 -19.160156 21.5 -19.390625 C 22.46875 -19.617188 23.15625 -19.945312 23.5625 -20.375 C 23.976562 -20.8125 24.1875 -21.460938 24.1875 -22.328125 C 24.1875 -23.441406 23.9375 -24.429688 23.4375 -25.296875 C 22.945312 -26.160156 22.226562 -26.835938 21.28125 -27.328125 C 20.332031 -27.828125 19.09375 -28.078125 17.5625 -28.078125 C 16.332031 -28.078125 15.097656 -27.867188 13.859375 -27.453125 C 12.617188 -27.046875 11.546875 -26.347656 10.640625 -25.359375 C 9.734375 -24.367188 9.132812 -23.007812 8.84375 -21.28125 L 3.71875 -22.953125 C 4.039062 -24.515625 4.582031 -25.894531 5.34375 -27.09375 C 6.113281 -28.289062 7.082031 -29.320312 8.25 -30.1875 C 9.425781 -31.050781 10.796875 -31.695312 12.359375 -32.125 C 13.929688 -32.5625 15.644531 -32.78125 17.5 -32.78125 C 20.0625 -32.78125 22.144531 -32.421875 23.75 -31.703125 C 25.363281 -30.984375 26.601562 -29.992188 27.46875 -28.734375 C 28.332031 -27.472656 28.925781 -26.078125 29.25 -24.546875 C 29.582031 -23.023438 29.75 -21.484375 29.75 -19.921875 L 29.75 -13.046875 C 29.75 -11.734375 29.78125 -10.320312 29.84375 -8.8125 C 29.90625 -7.3125 29.988281 -5.796875 30.09375 -4.265625 C 30.195312 -2.742188 30.3125 -1.320312 30.4375 0 L 25.234375 0 C 25.148438 -1.363281 25.066406 -2.722656 24.984375 -4.078125 C 24.910156 -5.441406 24.851562 -6.828125 24.8125 -8.234375 L 24 -8.234375 C 23.425781 -6.617188 22.625 -5.128906 21.59375 -3.765625 C 20.5625 -2.410156 19.257812 -1.3125 17.6875 -0.46875 C 16.125 0.375 14.289062 0.796875 12.1875 0.796875 Z M 13.796875 -3.765625 C 14.742188 -3.765625 15.691406 -3.921875 16.640625 -4.234375 C 17.585938 -4.546875 18.535156 -5.039062 19.484375 -5.71875 C 20.429688 -6.40625 21.304688 -7.28125 22.109375 -8.34375 C 22.921875 -9.414062 23.632812 -10.71875 24.25 -12.25 L 24.25 -18 L 25.921875 -17.75 C 25.253906 -17.09375 24.375 -16.585938 23.28125 -16.234375 C 22.195312 -15.890625 20.992188 -15.625 19.671875 -15.4375 C 18.347656 -15.25 17.023438 -15.03125 15.703125 -14.78125 C 14.390625 -14.53125 13.1875 -14.195312 12.09375 -13.78125 C 11 -13.375 10.109375 -12.769531 9.421875 -11.96875 C 8.742188 -11.164062 8.40625 -10.082031 8.40625 -8.71875 C 8.40625 -7.113281 8.898438 -5.882812 9.890625 -5.03125 C 10.878906 -4.1875 12.179688 -3.765625 13.796875 -3.765625 Z M 13.796875 -3.765625 "/></g></g></g><g fill="#03555d" fill-opacity="1"><g transform="translate(210.395396, 79.353005)"><g><path d="M 16.640625 0.796875 C 14.410156 0.796875 12.441406 0.554688 10.734375 0.078125 C 9.023438 -0.390625 7.582031 -1.066406 6.40625 -1.953125 C 5.226562 -2.835938 4.328125 -3.90625 3.703125 -5.15625 C 3.085938 -6.414062 2.78125 -7.832031 2.78125 -9.40625 L 7.546875 -10.578125 C 7.503906 -9.128906 7.851562 -7.898438 8.59375 -6.890625 C 9.34375 -5.878906 10.425781 -5.101562 11.84375 -4.5625 C 13.269531 -4.03125 14.972656 -3.765625 16.953125 -3.765625 C 19.421875 -3.765625 21.328125 -4.175781 22.671875 -5 C 24.015625 -5.832031 24.6875 -6.96875 24.6875 -8.40625 C 24.6875 -9.5625 24.3125 -10.457031 23.5625 -11.09375 C 22.820312 -11.738281 21.789062 -12.242188 20.46875 -12.609375 C 19.15625 -12.984375 17.628906 -13.359375 15.890625 -13.734375 C 14.367188 -14.066406 12.863281 -14.4375 11.375 -14.84375 C 9.894531 -15.257812 8.546875 -15.804688 7.328125 -16.484375 C 6.109375 -17.160156 5.128906 -18.046875 4.390625 -19.140625 C 3.648438 -20.234375 3.28125 -21.628906 3.28125 -23.328125 C 3.28125 -25.265625 3.796875 -26.929688 4.828125 -28.328125 C 5.859375 -29.734375 7.320312 -30.828125 9.21875 -31.609375 C 11.113281 -32.390625 13.378906 -32.78125 16.015625 -32.78125 C 18.617188 -32.78125 20.859375 -32.378906 22.734375 -31.578125 C 24.609375 -30.773438 26.082031 -29.640625 27.15625 -28.171875 C 28.226562 -26.710938 28.828125 -24.972656 28.953125 -22.953125 L 24.0625 -21.78125 C 24.019531 -23.175781 23.65625 -24.359375 22.96875 -25.328125 C 22.289062 -26.296875 21.332031 -27.015625 20.09375 -27.484375 C 18.863281 -27.960938 17.425781 -28.203125 15.78125 -28.203125 C 13.59375 -28.203125 11.867188 -27.789062 10.609375 -26.96875 C 9.347656 -26.144531 8.71875 -25.007812 8.71875 -23.5625 C 8.71875 -22.445312 9.097656 -21.5625 9.859375 -20.90625 C 10.628906 -20.25 11.660156 -19.742188 12.953125 -19.390625 C 14.253906 -19.035156 15.726562 -18.675781 17.375 -18.3125 C 18.988281 -17.976562 20.546875 -17.601562 22.046875 -17.1875 C 23.554688 -16.78125 24.910156 -16.242188 26.109375 -15.578125 C 27.304688 -14.921875 28.253906 -14.046875 28.953125 -12.953125 C 29.648438 -11.859375 30 -10.445312 30 -8.71875 C 30 -6.65625 29.441406 -4.910156 28.328125 -3.484375 C 27.210938 -2.066406 25.664062 -1 23.6875 -0.28125 C 21.707031 0.4375 19.359375 0.796875 16.640625 0.796875 Z M 16.640625 0.796875 "/></g></g></g><g fill="#03555d" fill-opacity="1"><g transform="translate(242.935868, 79.353005)"><g><path d="M 15.03125 0.796875 C 13.425781 0.796875 12.023438 0.546875 10.828125 0.046875 C 9.628906 -0.441406 8.609375 -1.128906 7.765625 -2.015625 C 6.921875 -2.898438 6.238281 -3.96875 5.71875 -5.21875 C 5.207031 -6.476562 4.828125 -7.867188 4.578125 -9.390625 C 4.328125 -10.921875 4.203125 -12.570312 4.203125 -14.34375 L 4.203125 -31.984375 L 9.890625 -31.984375 L 9.890625 -15.65625 C 9.890625 -14.375 9.953125 -13.0625 10.078125 -11.71875 C 10.203125 -10.382812 10.476562 -9.148438 10.90625 -8.015625 C 11.34375 -6.878906 12.015625 -5.957031 12.921875 -5.25 C 13.835938 -4.550781 15.078125 -4.203125 16.640625 -4.203125 C 17.921875 -4.203125 19.078125 -4.519531 20.109375 -5.15625 C 21.140625 -5.800781 22.035156 -6.710938 22.796875 -7.890625 C 23.554688 -9.066406 24.171875 -10.46875 24.640625 -12.09375 C 25.117188 -13.71875 25.460938 -15.519531 25.671875 -17.5 L 25.671875 -31.984375 L 31.296875 -31.984375 L 31.296875 0 L 26.296875 0 L 26.78125 -10.578125 L 25.859375 -10.578125 C 25.359375 -7.941406 24.613281 -5.773438 23.625 -4.078125 C 22.632812 -2.390625 21.414062 -1.15625 19.96875 -0.375 C 18.53125 0.40625 16.882812 0.796875 15.03125 0.796875 Z M 15.03125 0.796875 "/></g></g></g><g fill="#03555d" fill-opacity="1"><g transform="translate(278.940721, 79.353005)"><g><path d="M 16.640625 0.796875 C 14.410156 0.796875 12.441406 0.554688 10.734375 0.078125 C 9.023438 -0.390625 7.582031 -1.066406 6.40625 -1.953125 C 5.226562 -2.835938 4.328125 -3.90625 3.703125 -5.15625 C 3.085938 -6.414062 2.78125 -7.832031 2.78125 -9.40625 L 7.546875 -10.578125 C 7.503906 -9.128906 7.851562 -7.898438 8.59375 -6.890625 C 9.34375 -5.878906 10.425781 -5.101562 11.84375 -4.5625 C 13.269531 -4.03125 14.972656 -3.765625 16.953125 -3.765625 C 19.421875 -3.765625 21.328125 -4.175781 22.671875 -5 C 24.015625 -5.832031 24.6875 -6.96875 24.6875 -8.40625 C 24.6875 -9.5625 24.3125 -10.457031 23.5625 -11.09375 C 22.820312 -11.738281 21.789062 -12.242188 20.46875 -12.609375 C 19.15625 -12.984375 17.628906 -13.359375 15.890625 -13.734375 C 14.367188 -14.066406 12.863281 -14.4375 11.375 -14.84375 C 9.894531 -15.257812 8.546875 -15.804688 7.328125 -16.484375 C 6.109375 -17.160156 5.128906 -18.046875 4.390625 -19.140625 C 3.648438 -20.234375 3.28125 -21.628906 3.28125 -23.328125 C 3.28125 -25.265625 3.796875 -26.929688 4.828125 -28.328125 C 5.859375 -29.734375 7.320312 -30.828125 9.21875 -31.609375 C 11.113281 -32.390625 13.378906 -32.78125 16.015625 -32.78125 C 18.617188 -32.78125 20.859375 -32.378906 22.734375 -31.578125 C 24.609375 -30.773438 26.082031 -29.640625 27.15625 -28.171875 C 28.226562 -26.710938 28.828125 -24.972656 28.953125 -22.953125 L 24.0625 -21.78125 C 24.019531 -23.175781 23.65625 -24.359375 22.96875 -25.328125 C 22.289062 -26.296875 21.332031 -27.015625 20.09375 -27.484375 C 18.863281 -27.960938 17.425781 -28.203125 15.78125 -28.203125 C 13.59375 -28.203125 11.867188 -27.789062 10.609375 -26.96875 C 9.347656 -26.144531 8.71875 -25.007812 8.71875 -23.5625 C 8.71875 -22.445312 9.097656 -21.5625 9.859375 -20.90625 C 10.628906 -20.25 11.660156 -19.742188 12.953125 -19.390625 C 14.253906 -19.035156 15.726562 -18.675781 17.375 -18.3125 C 18.988281 -17.976562 20.546875 -17.601562 22.046875 -17.1875 C 23.554688 -16.78125 24.910156 -16.242188 26.109375 -15.578125 C 27.304688 -14.921875 28.253906 -14.046875 28.953125 -12.953125 C 29.648438 -11.859375 30 -10.445312 30 -8.71875 C 30 -6.65625 29.441406 -4.910156 28.328125 -3.484375 C 27.210938 -2.066406 25.664062 -1 23.6875 -0.28125 C 21.707031 0.4375 19.359375 0.796875 16.640625 0.796875 Z M 16.640625 0.796875 "/></g></g></g></svg>